<?xml version="1.0" standalone="no"?>
<!DOCTYPE svg PUBLIC "-//W3C//DTD SVG 20010904//EN"
 "http://www.w3.org/TR/2001/REC-SVG-20010904/DTD/svg10.dtd">
<svg version="1.0" xmlns="http://www.w3.org/2000/svg"
 width="128.000000pt" height="128.000000pt" viewBox="0 0 128.000000 128.000000"
 preserveAspectRatio="xMidYMid meet">

<g transform="translate(0.000000,128.000000) scale(0.100000,-0.100000)"
fill="#000000" stroke="none">
<path d="M330 640 l0 -280 60 0 60 0 0 138 c0 117 -4 148 -25 217 -24 76 -23
94 6 95 3 0 42 -101 85 -225 l79 -226 49 3 49 3 77 220 c43 121 80 219 84 218
29 -8 30 -11 8 -85 -18 -63 -22 -101 -22 -217 l0 -141 60 0 60 0 0 280 0 281
-92 -3 -91 -3 -58 -160 c-39 -107 -58 -176 -58 -207 -1 -41 -4 -48 -21 -48
-18 0 -20 7 -20 54 0 50 -12 90 -102 339 -10 27 -11 27 -99 27 l-89 0 0 -280z"/>
</g>
</svg>
